{
  "asset": {
    "version": "2.0",
    "generator": "THREE.GLTFExporter"
  },
  "scenes": [
    {
      "nodes": [
        0
      ]
    }
  ],
  "scene": 0,
  "nodes": [
    {
      "children": [
        7
      ],
      "matrix": [
        0.01,
        0,
        0,
        0,
        0,
        0.01,
        0,
        0,
        0,
        0,
        0.01,
        0,
        0,
        0,
        0,
        1
      ]
    },
    {
      "name": "jet",
      "mesh": 0
    },
    {
      "matrix": [
        124.99999813735488,
        0,
        0,
        0,
        0,
        124.99539545193461,
        1.0726836221396383,
        0,
        0,
        -1.0726836221396383,
        124.99539545193461,
        0,
        21,
        -34,
        -2,
        1
      ],
      "name": "jet",
      "children": [
        1
      ]
    },
    {
      "matrix": [
        -0.12897526664740822,
        -1.6653345369377348e-16,
        0.9916478107640987,
        0,
        0.9916478107640987,
        0,
        0.12897526664740827,
        0,
        5.551115123125783e-17,
        1,
        2.220446049250313e-16,
        0,
        124.47975253479672,
        -72,
        -70.61735479868366,
        1
      ],
      "name": "Shape",
      "mesh": 1
    },
    {
      "matrix": [
        0.9060592219359266,
        -0.049501924807579235,
        -0.42024545897035936,
        0,
        0.05455295772982765,
        0.9985108786602817,
        0,
        0,
        0.41961966248948684,
        -0.022925632759362033,
        0.9074104662250662,
        0,
        0,
        0,
        0,
        1
      ],
      "name": "Directional Light",
      "extensions": {
        "KHR_lights_punctual": {
          "light": 0
        }
      }
    },
    {
      "matrix": [
        0.9906933697968177,
        -5.342535743663168e-8,
        -0.1361126263085941,
        0,
        -0.05147759534086554,
        0.9257243643511701,
        -0.3746791406317465,
        0,
        0.12600279448705864,
        0.378198891122937,
        0.9171089872718688,
        0,
        61.446220586282976,
        184.43936150880117,
        447.250102089866,
        1
      ],
      "camera": 0
    },
    {
      "matrix": [
        1,
        0,
        0,
        0,
        0,
        1,
        0,
        0,
        0,
        0,
        1,
        0,
        0,
        1,
        0,
        1
      ],
      "name": "Default Ambient Light"
    },
    {
      "name": "Scene 1",
      "children": [
        2,
        3,
        4,
        5,
        6
      ]
    }
  ],
  "bufferViews": [
    {
      "buffer": 0,
      "byteOffset": 0,
      "byteLength": 10080,
      "target": 34962,
      "byteStride": 12
    },
    {
      "buffer": 0,
      "byteOffset": 10080,
      "byteLength": 10080,
      "target": 34962,
      "byteStride": 12
    },
    {
      "buffer": 0,
      "byteOffset": 20160,
      "byteLength": 6720,
      "target": 34962,
      "byteStride": 8
    },
    {
      "buffer": 0,
      "byteOffset": 26880,
      "byteLength": 12,
      "target": 34962,
      "byteStride": 12
    },
    {
      "buffer": 0,
      "byteOffset": 26892,
      "byteLength": 12,
      "target": 34962,
      "byteStride": 12
    },
    {
      "buffer": 0,
      "byteOffset": 26904,
      "byteLength": 8,
      "target": 34962,
      "byteStride": 8
    },
    {
      "buffer": 0,
      "byteOffset": 26912,
      "byteLength": 12,
      "target": 34963
    }
  ],
  "buffers": [
    {
      "byteLength": 26924,
      "uri": "data:application/octet-stream;base64,"
    }
  ],
  "accessors": [
    {
      "bufferView": 0,
      "componentType": 5126,
      "count": 840,
      "max": [
        1,
        0.800000011920929,
        1.0499999523162842
      ],
      "min": [
        -1,
        0,
        -1.0499999523162842
      ],
      "type": "VEC3"
    },
    {
      "bufferView": 1,
      "componentType": 5126,
      "count": 840,
      "max": [
        1,
        1,
        1
      ],
      "min": [
        -1,
        -1,
        -1
      ],
      "type": "VEC3"
    },
    {
      "bufferView": 2,
      "componentType": 5126,
      "count": 840,
      "max": [
        41.33858108520508,
        42.54935836791992
      ],
      "min": [
        -41.33858108520508,
        -41.33858108520508
      ],
      "type": "VEC2"
    },
    {
      "bufferView": 3,
      "componentType": 5126,
      "count": 1,
      "max": [
        0,
        0,
        0
      ],
      "min": [
        0,
        0,
        0
      ],
      "type": "VEC3"
    },
    {
      "bufferView": 4,
      "componentType": 5126,
      "count": 1,
      "max": [
        1,
        0,
        0
      ],
      "min": [
        1,
        0,
        0
      ],
      "type": "VEC3"
    },
    {
      "bufferView": 5,
      "componentType": 5126,
      "count": 1,
      "max": [
        0,
        0
      ],
      "min": [
        0,
        0
      ],
      "type": "VEC2"
    },
    {
      "bufferView": 6,
      "componentType": 5125,
      "count": 3,
      "max": [
        0
      ],
      "min": [
        0
      ],
      "type": "SCALAR"
    }
  ],
  "meshes": [
    {
      "primitives": [
        {
          "mode": 4,
          "attributes": {
            "POSITION": 0,
            "NORMAL": 1,
            "TEXCOORD_0": 2
          },
          "extras": {
            "parameters": {
              "width": 2,
              "height": 0.800000011920929,
              "depth": 2.0999999046325684,
              "subdivisions": 0
            },
            "type": "NonParametricGeometry"
          }
        },
        {
          "mode": 4,
          "attributes": {
            "POSITION": 0,
            "NORMAL": 1,
            "TEXCOORD_0": 2
          },
          "extras": {
            "parameters": {
              "width": 2,
              "height": 0.800000011920929,
              "depth": 2.0999999046325684,
              "subdivisions": 0
            },
            "type": "NonParametricGeometry"
          }
        },
        {
          "mode": 4,
          "attributes": {
            "POSITION": 0,
            "NORMAL": 1,
            "TEXCOORD_0": 2
          },
          "extras": {
            "parameters": {
              "width": 2,
              "height": 0.800000011920929,
              "depth": 2.0999999046325684,
              "subdivisions": 0
            },
            "type": "NonParametricGeometry"
          }
        },
        {
          "mode": 4,
          "attributes": {
            "POSITION": 0,
            "NORMAL": 1,
            "TEXCOORD_0": 2
          },
          "extras": {
            "parameters": {
              "width": 2,
              "height": 0.800000011920929,
              "depth": 2.0999999046325684,
              "subdivisions": 0
            },
            "type": "NonParametricGeometry"
          }
        }
      ]
    },
    {
      "primitives": [
        {
          "mode": 4,
          "attributes": {
            "POSITION": 3,
            "NORMAL": 4,
            "TEXCOORD_0": 5
          },
          "extras": {
            "parameters": {
              "width": 0,
              "subdivisions": 40,
              "roundness": 0,
              "extrudeBevelSize": 0,
              "extrudeBevelSegments": 3,
              "windingRule": 0,
              "height": 0,
              "depth": 0,
              "shape": {
                "points": [],
                "isClosed": false,
                "roundness": 0,
                "shapeHoles": []
              },
              "type": "VectorGeometry"
            },
            "shape": {
              "points": [],
              "shapeHoles": [],
              "isClosed": false,
              "roundness": 0
            },
            "type": "VectorGeometry"
          },
          "indices": 6
        }
      ]
    }
  ],
  "extensions": {
    "KHR_lights_punctual": {
      "lights": [
        {
          "name": "Directional Light",
          "color": [
            1,
            1,
            1
          ],
          "intensity": 0.7,
          "type": "directional"
        }
      ]
    }
  },
  "cameras": [
    {
      "type": "perspective",
      "perspective": {
        "aspectRatio": 2.1052631578947367,
        "yfov": 0.7853981633974483,
        "zfar": 100000,
        "znear": 70
      }
    }
  ],
  "extensionsUsed": [
    "KHR_lights_punctual"
  ]
}